<svg width="1920" height="1080" viewBox="0 0 1920 1080" fill="none" xmlns="http://www.w3.org/2000/svg">
<g clip-path="url(#clip0_876_4)">
<rect width="1920" height="1080" fill="url(#paint0_linear_876_4)"/>
<path d="M1893 917C1893 983.274 1839.27 1037 1773 1037C1706.73 1037 1653 983.274 1653 917C1653 850.726 1706.73 797 1773 797C1839.27 797 1893 850.726 1893 917ZM1671.99 917C1671.99 972.785 1717.21 1018.01 1773 1018.01C1828.79 1018.01 1874.01 972.785 1874.01 917C1874.01 861.215 1828.79 815.992 1773 815.992C1717.21 815.992 1671.99 861.215 1671.99 917Z" fill="#EF5A25" fill-opacity="0.73"/>
<path d="M1699 751C1699 768.673 1684.67 783 1667 783C1649.33 783 1635 768.673 1635 751C1635 733.327 1649.33 719 1667 719C1684.67 719 1699 733.327 1699 751ZM1643.25 751C1643.25 764.116 1653.88 774.748 1667 774.748C1680.12 774.748 1690.75 764.116 1690.75 751C1690.75 737.884 1680.12 727.252 1667 727.252C1653.88 727.252 1643.25 737.884 1643.25 751Z" fill="#EF5A25" fill-opacity="0.73"/>
<path d="M1827 690C1827 714.853 1806.85 735 1782 735C1757.15 735 1737 714.853 1737 690C1737 665.147 1757.15 645 1782 645C1806.85 645 1827 665.147 1827 690ZM1744.12 690C1744.12 710.919 1761.08 727.878 1782 727.878C1802.92 727.878 1819.88 710.919 1819.88 690C1819.88 669.081 1802.92 652.122 1782 652.122C1761.08 652.122 1744.12 669.081 1744.12 690Z" fill="#EF5A25"/>
<path d="M368 1013C368 1216.24 203.241 1381 0 1381C-203.241 1381 -368 1216.24 -368 1013C-368 809.759 -203.241 645 0 645C203.241 645 368 809.759 368 1013ZM-261.652 1013C-261.652 1157.51 -144.507 1274.65 0 1274.65C144.507 1274.65 261.652 1157.51 261.652 1013C261.652 868.493 144.507 751.348 0 751.348C-144.507 751.348 -261.652 868.493 -261.652 1013Z" fill="#EF5A25" fill-opacity="0.7"/>
</g>
<defs>
<linearGradient id="paint0_linear_876_4" x1="960" y1="0" x2="960" y2="1080" gradientUnits="userSpaceOnUse">
<stop stop-color="#DAEFFC"/>
<stop offset="1" stop-color="white"/>
</linearGradient>
<clipPath id="clip0_876_4">
<rect width="1920" height="1080" fill="white"/>
</clipPath>
</defs>
</svg>
